<svg xmlns="http://www.w3.org/2000/svg" xmlns:xlink="http://www.w3.org/1999/xlink" width="500" zoomAndPan="magnify" viewBox="0 0 375 374.999991" height="500" preserveAspectRatio="xMidYMid meet" version="1.0"><defs><g/><clipPath id="d7ecd451a8"><path d="M 177 207 L 281 207 L 281 348 L 177 348 Z M 177 207 " clip-rule="nonzero"/></clipPath><clipPath id="713829e556"><path d="M 155.550781 225.175781 L 256.652344 191.707031 L 302.144531 329.121094 L 201.042969 362.59375 Z M 155.550781 225.175781 " clip-rule="nonzero"/></clipPath><clipPath id="7063c08420"><path d="M 155.550781 225.175781 L 256.652344 191.707031 L 302.144531 329.121094 L 201.042969 362.59375 Z M 155.550781 225.175781 " clip-rule="nonzero"/></clipPath><clipPath id="c637b8317e"><path d="M 73.136719 12.734375 L 296.636719 12.734375 L 296.636719 276.734375 L 73.136719 276.734375 Z M 73.136719 12.734375 " clip-rule="nonzero"/></clipPath></defs><g clip-path="url(#d7ecd451a8)"><g clip-path="url(#713829e556)"><g clip-path="url(#7063c08420)"><path fill="#772432" d="M 234.667969 295.035156 C 246.601562 291.085938 253.015625 278.203125 249.0625 266.273438 L 234.816406 222.996094 C 230.855469 211.027344 217.996094 204.566406 206.03125 208.527344 C 194.097656 212.476562 187.601562 225.347656 191.5625 237.3125 L 205.882812 280.566406 C 209.832031 292.5 222.738281 298.984375 234.667969 295.035156 Z M 265.71875 260.757812 C 272.875 282.386719 259.613281 303.574219 239.679688 310.171875 C 219.785156 316.761719 196.460938 307.683594 189.300781 286.058594 L 177.046875 290.113281 C 185.195312 314.734375 211.535156 328.570312 236.339844 324.238281 L 244.167969 347.882812 L 258.585938 343.109375 L 250.757812 319.464844 C 273.246094 308.140625 286.121094 281.320312 277.972656 256.703125 Z M 265.71875 260.757812 " fill-opacity="1" fill-rule="nonzero"/></g></g></g><g clip-path="url(#c637b8317e)"><path fill="#004165" d="M 164.667969 196.386719 C 164.667969 191.90625 161.039062 188.273438 156.554688 188.273438 C 152.074219 188.273438 148.441406 191.90625 148.441406 196.386719 C 148.441406 200.867188 152.074219 204.5 156.554688 204.5 C 161.039062 204.5 164.667969 200.867188 164.667969 196.386719 Z M 140.5 196.386719 C 140.5 191.90625 136.867188 188.273438 132.382812 188.273438 C 127.902344 188.273438 124.269531 191.90625 124.269531 196.386719 C 124.269531 200.867188 127.902344 204.5 132.382812 204.5 C 136.867188 204.5 140.5 200.867188 140.5 196.386719 Z M 116.328125 196.386719 C 116.328125 191.90625 112.695312 188.273438 108.214844 188.273438 C 103.730469 188.273438 100.097656 191.90625 100.097656 196.386719 C 100.097656 200.867188 103.730469 204.5 108.214844 204.5 C 112.695312 204.5 116.328125 200.867188 116.328125 196.386719 Z M 132.382812 140.238281 C 148.976562 140.238281 162.011719 145.074219 170.078125 154.222656 C 174.378906 159.105469 172.679688 164.175781 169.914062 167.03125 C 166.152344 170.921875 159.242188 172.277344 152.28125 166.542969 C 143.503906 159.304688 136.484375 150.332031 131.507812 140.242188 C 131.800781 140.238281 132.09375 140.238281 132.382812 140.238281 Z M 167.40625 276.6875 C 168.414062 276.226562 169.082031 275.238281 169.132812 274.132812 L 170.769531 238.703125 C 179.804688 231.019531 186.246094 220.984375 189.441406 209.597656 C 189.882812 208.023438 188.964844 206.390625 187.390625 205.953125 C 185.828125 205.511719 184.191406 206.429688 183.75 208 C 180.769531 218.632812 174.636719 227.960938 166.011719 234.972656 C 165.359375 235.503906 164.964844 236.289062 164.925781 237.128906 L 163.496094 268.101562 L 137.421875 247.457031 C 136.855469 247.011719 136.140625 246.785156 135.421875 246.824219 C 134.320312 246.886719 133.328125 246.917969 132.382812 246.917969 C 102.972656 246.917969 79.046875 222.988281 79.046875 193.578125 C 79.046875 166.605469 99.167969 144.246094 125.1875 140.71875 C 130.570312 152.417969 138.472656 162.816406 148.523438 171.101562 C 158.335938 179.191406 168.691406 176.792969 174.160156 171.140625 C 179.921875 165.183594 180.066406 156.621094 174.507812 150.320312 C 168.078125 143.023438 155.550781 134.328125 132.382812 134.328125 C 131.21875 134.328125 130.0625 134.363281 128.914062 134.429688 C 124.96875 124.5625 122.875 113.816406 122.875 102.699219 C 122.875 56.378906 160.558594 18.695312 206.875 18.695312 C 253.191406 18.695312 290.871094 56.378906 290.871094 102.699219 C 290.871094 128.082031 279.558594 151.84375 259.832031 167.886719 C 259.179688 168.417969 258.785156 169.203125 258.742188 170.042969 L 256.390625 221.019531 L 213.652344 187.1875 C 212.375 186.171875 210.515625 186.390625 209.503906 187.667969 C 208.492188 188.949219 208.707031 190.804688 209.988281 191.820312 L 257.242188 229.230469 C 258.113281 229.917969 259.292969 230.0625 260.300781 229.601562 C 261.308594 229.144531 261.976562 228.160156 262.027344 227.050781 L 264.585938 171.621094 C 285.066406 154.46875 296.78125 129.425781 296.78125 102.699219 C 296.78125 53.121094 256.449219 12.789062 206.875 12.789062 C 157.296875 12.789062 116.964844 53.121094 116.964844 102.699219 C 116.964844 114.007812 118.996094 124.964844 122.832031 135.097656 C 94.6875 139.679688 73.136719 164.160156 73.136719 193.578125 C 73.136719 226.246094 99.714844 252.824219 132.382812 252.824219 C 133.101562 252.824219 133.839844 252.808594 134.621094 252.78125 L 164.347656 276.3125 C 164.878906 276.734375 165.527344 276.953125 166.183594 276.953125 C 166.597656 276.953125 167.015625 276.863281 167.40625 276.6875 Z M 244.886719 99.734375 C 244.886719 94.664062 240.773438 90.550781 235.703125 90.550781 C 230.632812 90.550781 226.519531 94.664062 226.519531 99.734375 C 226.519531 104.804688 230.632812 108.914062 235.703125 108.914062 C 240.773438 108.914062 244.886719 104.804688 244.886719 99.734375 Z M 217.535156 99.734375 C 217.535156 94.664062 213.421875 90.550781 208.351562 90.550781 C 203.28125 90.550781 199.167969 94.664062 199.167969 99.734375 C 199.167969 104.804688 203.28125 108.914062 208.351562 108.914062 C 213.421875 108.914062 217.535156 104.804688 217.535156 99.734375 Z M 180.996094 108.914062 C 175.925781 108.914062 171.8125 104.804688 171.8125 99.734375 C 171.8125 94.664062 175.925781 90.550781 180.996094 90.550781 C 186.066406 90.550781 190.179688 94.664062 190.179688 99.734375 C 190.179688 104.804688 186.066406 108.914062 180.996094 108.914062 " fill-opacity="1" fill-rule="nonzero"/></g><g fill="#004165" fill-opacity="1"><g transform="translate(153.10895, 80.715534)"><g><path d="M 5.4375 0 L 5.4375 -14.0625 L 0.671875 -14.0625 L 0.671875 -17.359375 L 14.140625 -17.359375 L 14.140625 -14.0625 L 9.375 -14.0625 L 9.375 0 Z M 5.4375 0 "/></g></g></g><g fill="#004165" fill-opacity="1"><g transform="translate(167.906214, 80.715534)"><g><path d="M 7.40625 0.3125 C 6.570312 0.3125 5.765625 0.160156 4.984375 -0.140625 C 4.203125 -0.453125 3.515625 -0.898438 2.921875 -1.484375 C 2.328125 -2.078125 1.847656 -2.800781 1.484375 -3.65625 C 1.128906 -4.519531 0.953125 -5.503906 0.953125 -6.609375 C 0.953125 -7.703125 1.128906 -8.679688 1.484375 -9.546875 C 1.847656 -10.410156 2.328125 -11.132812 2.921875 -11.71875 C 3.515625 -12.300781 4.203125 -12.75 4.984375 -13.0625 C 5.765625 -13.375 6.570312 -13.53125 7.40625 -13.53125 C 8.238281 -13.53125 9.039062 -13.375 9.8125 -13.0625 C 10.582031 -12.75 11.265625 -12.300781 11.859375 -11.71875 C 12.453125 -11.132812 12.925781 -10.410156 13.28125 -9.546875 C 13.632812 -8.679688 13.8125 -7.703125 13.8125 -6.609375 C 13.8125 -5.503906 13.632812 -4.519531 13.28125 -3.65625 C 12.925781 -2.800781 12.453125 -2.078125 11.859375 -1.484375 C 11.265625 -0.898438 10.582031 -0.453125 9.8125 -0.140625 C 9.039062 0.160156 8.238281 0.3125 7.40625 0.3125 Z M 7.40625 -2.84375 C 8.195312 -2.84375 8.796875 -3.179688 9.203125 -3.859375 C 9.617188 -4.535156 9.828125 -5.453125 9.828125 -6.609375 C 9.828125 -7.753906 9.617188 -8.664062 9.203125 -9.34375 C 8.796875 -10.019531 8.195312 -10.359375 7.40625 -10.359375 C 6.582031 -10.359375 5.972656 -10.019531 5.578125 -9.34375 C 5.179688 -8.664062 4.984375 -7.753906 4.984375 -6.609375 C 4.984375 -5.453125 5.179688 -4.535156 5.578125 -3.859375 C 5.972656 -3.179688 6.582031 -2.84375 7.40625 -2.84375 Z M 7.40625 -2.84375 "/></g></g></g><g fill="#004165" fill-opacity="1"><g transform="translate(182.676864, 80.715534)"><g><path d="M 5.0625 0.3125 C 4.457031 0.3125 3.910156 0.207031 3.421875 0 C 2.929688 -0.195312 2.515625 -0.476562 2.171875 -0.84375 C 1.835938 -1.207031 1.578125 -1.628906 1.390625 -2.109375 C 1.210938 -2.585938 1.125 -3.109375 1.125 -3.671875 C 1.125 -5.054688 1.707031 -6.140625 2.875 -6.921875 C 4.039062 -7.703125 5.929688 -8.226562 8.546875 -8.5 C 8.515625 -9.082031 8.34375 -9.546875 8.03125 -9.890625 C 7.71875 -10.234375 7.195312 -10.40625 6.46875 -10.40625 C 5.90625 -10.40625 5.34375 -10.296875 4.78125 -10.078125 C 4.21875 -9.867188 3.617188 -9.582031 2.984375 -9.21875 L 1.578125 -11.796875 C 2.421875 -12.304688 3.304688 -12.722656 4.234375 -13.046875 C 5.171875 -13.367188 6.164062 -13.53125 7.21875 -13.53125 C 8.914062 -13.53125 10.210938 -13.046875 11.109375 -12.078125 C 12.003906 -11.109375 12.453125 -9.601562 12.453125 -7.5625 L 12.453125 0 L 9.265625 0 L 9 -1.359375 L 8.890625 -1.359375 C 8.328125 -0.859375 7.734375 -0.453125 7.109375 -0.140625 C 6.484375 0.160156 5.800781 0.3125 5.0625 0.3125 Z M 6.390625 -2.71875 C 6.835938 -2.71875 7.21875 -2.8125 7.53125 -3 C 7.851562 -3.195312 8.191406 -3.472656 8.546875 -3.828125 L 8.546875 -6.15625 C 7.160156 -5.957031 6.203125 -5.671875 5.671875 -5.296875 C 5.140625 -4.921875 4.875 -4.476562 4.875 -3.96875 C 4.875 -3.539062 5.007812 -3.222656 5.28125 -3.015625 C 5.5625 -2.816406 5.929688 -2.71875 6.390625 -2.71875 Z M 6.390625 -2.71875 "/></g></g></g><g fill="#004165" fill-opacity="1"><g transform="translate(196.702332, 80.715534)"><g><path d="M 5.625 0.3125 C 4.75 0.3125 3.851562 0.144531 2.9375 -0.1875 C 2.03125 -0.519531 1.238281 -0.960938 0.5625 -1.515625 L 2.3125 -3.96875 C 2.914062 -3.507812 3.492188 -3.160156 4.046875 -2.921875 C 4.597656 -2.691406 5.15625 -2.578125 5.71875 -2.578125 C 6.3125 -2.578125 6.738281 -2.675781 7 -2.875 C 7.269531 -3.070312 7.40625 -3.347656 7.40625 -3.703125 C 7.40625 -3.910156 7.328125 -4.097656 7.171875 -4.265625 C 7.023438 -4.441406 6.820312 -4.597656 6.5625 -4.734375 C 6.300781 -4.878906 6.007812 -5.007812 5.6875 -5.125 C 5.375 -5.238281 5.050781 -5.367188 4.71875 -5.515625 C 4.300781 -5.671875 3.890625 -5.851562 3.484375 -6.0625 C 3.078125 -6.28125 2.703125 -6.546875 2.359375 -6.859375 C 2.023438 -7.171875 1.75 -7.535156 1.53125 -7.953125 C 1.320312 -8.367188 1.21875 -8.851562 1.21875 -9.40625 C 1.21875 -10 1.335938 -10.550781 1.578125 -11.0625 C 1.816406 -11.582031 2.160156 -12.019531 2.609375 -12.375 C 3.054688 -12.726562 3.585938 -13.007812 4.203125 -13.21875 C 4.828125 -13.425781 5.519531 -13.53125 6.28125 -13.53125 C 7.289062 -13.53125 8.175781 -13.351562 8.9375 -13 C 9.707031 -12.65625 10.375 -12.269531 10.9375 -11.84375 L 9.1875 -9.5 C 8.707031 -9.851562 8.234375 -10.128906 7.765625 -10.328125 C 7.304688 -10.523438 6.847656 -10.625 6.390625 -10.625 C 5.398438 -10.625 4.90625 -10.273438 4.90625 -9.578125 C 4.90625 -9.367188 4.972656 -9.1875 5.109375 -9.03125 C 5.253906 -8.882812 5.445312 -8.75 5.6875 -8.625 C 5.925781 -8.5 6.195312 -8.378906 6.5 -8.265625 C 6.8125 -8.148438 7.140625 -8.03125 7.484375 -7.90625 C 7.910156 -7.75 8.332031 -7.566406 8.75 -7.359375 C 9.164062 -7.160156 9.546875 -6.910156 9.890625 -6.609375 C 10.234375 -6.304688 10.507812 -5.9375 10.71875 -5.5 C 10.9375 -5.0625 11.046875 -4.539062 11.046875 -3.9375 C 11.046875 -3.332031 10.929688 -2.769531 10.703125 -2.25 C 10.472656 -1.738281 10.125 -1.289062 9.65625 -0.90625 C 9.195312 -0.53125 8.628906 -0.234375 7.953125 -0.015625 C 7.285156 0.203125 6.507812 0.3125 5.625 0.3125 Z M 5.625 0.3125 "/></g></g></g><g fill="#004165" fill-opacity="1"><g transform="translate(208.492236, 80.715534)"><g><path d="M 6.8125 0.3125 C 6 0.3125 5.300781 0.191406 4.71875 -0.046875 C 4.144531 -0.296875 3.675781 -0.640625 3.3125 -1.078125 C 2.945312 -1.523438 2.679688 -2.0625 2.515625 -2.6875 C 2.347656 -3.320312 2.265625 -4.023438 2.265625 -4.796875 L 2.265625 -10.140625 L 0.453125 -10.140625 L 0.453125 -13.046875 L 2.46875 -13.203125 L 2.921875 -16.71875 L 6.171875 -16.71875 L 6.171875 -13.203125 L 9.34375 -13.203125 L 9.34375 -10.140625 L 6.171875 -10.140625 L 6.171875 -4.84375 C 6.171875 -4.101562 6.328125 -3.566406 6.640625 -3.234375 C 6.953125 -2.910156 7.363281 -2.75 7.875 -2.75 C 8.09375 -2.75 8.3125 -2.773438 8.53125 -2.828125 C 8.75 -2.878906 8.945312 -2.941406 9.125 -3.015625 L 9.75 -0.15625 C 9.394531 -0.0507812 8.976562 0.0507812 8.5 0.15625 C 8.019531 0.257812 7.457031 0.3125 6.8125 0.3125 Z M 6.8125 0.3125 "/></g></g></g><g fill="#772432" fill-opacity="1"><g transform="translate(218.703929, 80.715534)"><g><path d="M 5.4375 0 L 5.4375 -14.0625 L 0.671875 -14.0625 L 0.671875 -17.359375 L 14.140625 -17.359375 L 14.140625 -14.0625 L 9.375 -14.0625 L 9.375 0 Z M 5.4375 0 "/></g></g></g><g fill="#772432" fill-opacity="1"><g transform="translate(233.501193, 80.715534)"><g><path d="M 5.0625 0.3125 C 4.457031 0.3125 3.910156 0.207031 3.421875 0 C 2.929688 -0.195312 2.515625 -0.476562 2.171875 -0.84375 C 1.835938 -1.207031 1.578125 -1.628906 1.390625 -2.109375 C 1.210938 -2.585938 1.125 -3.109375 1.125 -3.671875 C 1.125 -5.054688 1.707031 -6.140625 2.875 -6.921875 C 4.039062 -7.703125 5.929688 -8.226562 8.546875 -8.5 C 8.515625 -9.082031 8.34375 -9.546875 8.03125 -9.890625 C 7.71875 -10.234375 7.195312 -10.40625 6.46875 -10.40625 C 5.90625 -10.40625 5.34375 -10.296875 4.78125 -10.078125 C 4.21875 -9.867188 3.617188 -9.582031 2.984375 -9.21875 L 1.578125 -11.796875 C 2.421875 -12.304688 3.304688 -12.722656 4.234375 -13.046875 C 5.171875 -13.367188 6.164062 -13.53125 7.21875 -13.53125 C 8.914062 -13.53125 10.210938 -13.046875 11.109375 -12.078125 C 12.003906 -11.109375 12.453125 -9.601562 12.453125 -7.5625 L 12.453125 0 L 9.265625 0 L 9 -1.359375 L 8.890625 -1.359375 C 8.328125 -0.859375 7.734375 -0.453125 7.109375 -0.140625 C 6.484375 0.160156 5.800781 0.3125 5.0625 0.3125 Z M 6.390625 -2.71875 C 6.835938 -2.71875 7.21875 -2.8125 7.53125 -3 C 7.851562 -3.195312 8.191406 -3.472656 8.546875 -3.828125 L 8.546875 -6.15625 C 7.160156 -5.957031 6.203125 -5.671875 5.671875 -5.296875 C 5.140625 -4.921875 4.875 -4.476562 4.875 -3.96875 C 4.875 -3.539062 5.007812 -3.222656 5.28125 -3.015625 C 5.5625 -2.816406 5.929688 -2.71875 6.390625 -2.71875 Z M 6.390625 -2.71875 "/></g></g></g><g fill="#772432" fill-opacity="1"><g transform="translate(247.526661, 80.715534)"><g><path d="M 5.328125 0.3125 C 4.648438 0.3125 4.078125 0.207031 3.609375 0 C 3.148438 -0.207031 2.785156 -0.503906 2.515625 -0.890625 C 2.242188 -1.273438 2.046875 -1.738281 1.921875 -2.28125 C 1.796875 -2.820312 1.734375 -3.425781 1.734375 -4.09375 L 1.734375 -18.671875 L 5.640625 -18.671875 L 5.640625 -3.9375 C 5.640625 -3.53125 5.710938 -3.242188 5.859375 -3.078125 C 6.015625 -2.921875 6.175781 -2.84375 6.34375 -2.84375 C 6.425781 -2.84375 6.5 -2.84375 6.5625 -2.84375 C 6.625 -2.84375 6.707031 -2.863281 6.8125 -2.90625 L 7.296875 0 C 7.078125 0.09375 6.800781 0.164062 6.46875 0.21875 C 6.144531 0.28125 5.765625 0.3125 5.328125 0.3125 Z M 5.328125 0.3125 "/></g></g></g><g fill="#772432" fill-opacity="1"><g transform="translate(255.138204, 80.715534)"><g><path d="M 1.734375 0 L 1.734375 -18.671875 L 5.53125 -18.671875 L 5.53125 -7.953125 L 5.640625 -7.953125 L 9.828125 -13.203125 L 14.078125 -13.203125 L 9.453125 -7.78125 L 14.4375 0 L 10.203125 0 L 7.21875 -5.140625 L 5.53125 -3.25 L 5.53125 0 Z M 1.734375 0 "/></g></g></g><g fill="#006094" fill-opacity="1"><g transform="translate(166.164589, 127.986424)"><g><path d="M 0.90625 0 L 1.140625 -1.984375 L 0.359375 -1.984375 L 0.359375 -2.96875 L 1.265625 -2.96875 L 1.40625 -4.140625 L 0.578125 -4.140625 L 0.578125 -5.125 L 1.53125 -5.125 L 1.75 -6.875 L 2.640625 -6.875 L 2.4375 -5.125 L 3.53125 -5.125 L 3.75 -6.875 L 4.640625 -6.875 L 4.4375 -5.125 L 5.265625 -5.125 L 5.265625 -4.140625 L 4.3125 -4.140625 L 4.171875 -2.96875 L 5.0625 -2.96875 L 5.0625 -1.984375 L 4.046875 -1.984375 L 3.8125 0 L 2.90625 0 L 3.140625 -1.984375 L 2.046875 -1.984375 L 1.8125 0 Z M 2.171875 -2.96875 L 3.265625 -2.96875 L 3.40625 -4.140625 L 2.3125 -4.140625 Z M 2.171875 -2.96875 "/></g></g></g><g fill="#006094" fill-opacity="1"><g transform="translate(171.746271, 127.986424)"><g><path d="M 2.9375 0.125 C 2.601562 0.125 2.28125 0.0625 1.96875 -0.0625 C 1.664062 -0.1875 1.394531 -0.363281 1.15625 -0.59375 C 0.914062 -0.820312 0.722656 -1.109375 0.578125 -1.453125 C 0.441406 -1.796875 0.375 -2.1875 0.375 -2.625 C 0.375 -3.0625 0.441406 -3.453125 0.578125 -3.796875 C 0.722656 -4.140625 0.914062 -4.425781 1.15625 -4.65625 C 1.394531 -4.882812 1.664062 -5.0625 1.96875 -5.1875 C 2.28125 -5.3125 2.601562 -5.375 2.9375 -5.375 C 3.269531 -5.375 3.585938 -5.3125 3.890625 -5.1875 C 4.203125 -5.0625 4.472656 -4.882812 4.703125 -4.65625 C 4.941406 -4.425781 5.128906 -4.140625 5.265625 -3.796875 C 5.410156 -3.453125 5.484375 -3.0625 5.484375 -2.625 C 5.484375 -2.1875 5.410156 -1.796875 5.265625 -1.453125 C 5.128906 -1.109375 4.941406 -0.820312 4.703125 -0.59375 C 4.472656 -0.363281 4.203125 -0.1875 3.890625 -0.0625 C 3.585938 0.0625 3.269531 0.125 2.9375 0.125 Z M 2.9375 -1.125 C 3.257812 -1.125 3.5 -1.257812 3.65625 -1.53125 C 3.820312 -1.800781 3.90625 -2.164062 3.90625 -2.625 C 3.90625 -3.082031 3.820312 -3.441406 3.65625 -3.703125 C 3.5 -3.972656 3.257812 -4.109375 2.9375 -4.109375 C 2.613281 -4.109375 2.375 -3.972656 2.21875 -3.703125 C 2.0625 -3.441406 1.984375 -3.082031 1.984375 -2.625 C 1.984375 -2.164062 2.0625 -1.800781 2.21875 -1.53125 C 2.375 -1.257812 2.613281 -1.125 2.9375 -1.125 Z M 2.9375 -1.125 "/></g></g></g><g fill="#006094" fill-opacity="1"><g transform="translate(177.613383, 127.986424)"><g><path d="M 0.6875 0 L 0.6875 -5.25 L 1.953125 -5.25 L 2.0625 -4.578125 L 2.109375 -4.578125 C 2.328125 -4.785156 2.570312 -4.96875 2.84375 -5.125 C 3.113281 -5.289062 3.425781 -5.375 3.78125 -5.375 C 4.351562 -5.375 4.769531 -5.1875 5.03125 -4.8125 C 5.289062 -4.4375 5.421875 -3.921875 5.421875 -3.265625 L 5.421875 0 L 3.859375 0 L 3.859375 -3.0625 C 3.859375 -3.4375 3.804688 -3.691406 3.703125 -3.828125 C 3.597656 -3.972656 3.4375 -4.046875 3.21875 -4.046875 C 3.019531 -4.046875 2.847656 -4 2.703125 -3.90625 C 2.566406 -3.820312 2.414062 -3.703125 2.25 -3.546875 L 2.25 0 Z M 0.6875 0 "/></g></g></g><g fill="#006094" fill-opacity="1"><g transform="translate(183.660202, 127.986424)"><g><path d="M 3.03125 0.125 C 2.65625 0.125 2.304688 0.0625 1.984375 -0.0625 C 1.660156 -0.1875 1.378906 -0.363281 1.140625 -0.59375 C 0.898438 -0.832031 0.710938 -1.117188 0.578125 -1.453125 C 0.441406 -1.796875 0.375 -2.1875 0.375 -2.625 C 0.375 -3.050781 0.441406 -3.429688 0.578125 -3.765625 C 0.722656 -4.109375 0.910156 -4.398438 1.140625 -4.640625 C 1.367188 -4.878906 1.628906 -5.0625 1.921875 -5.1875 C 2.222656 -5.3125 2.535156 -5.375 2.859375 -5.375 C 3.234375 -5.375 3.554688 -5.3125 3.828125 -5.1875 C 4.109375 -5.0625 4.34375 -4.882812 4.53125 -4.65625 C 4.71875 -4.425781 4.859375 -4.15625 4.953125 -3.84375 C 5.046875 -3.539062 5.09375 -3.210938 5.09375 -2.859375 C 5.09375 -2.710938 5.082031 -2.578125 5.0625 -2.453125 C 5.050781 -2.328125 5.039062 -2.234375 5.03125 -2.171875 L 1.890625 -2.171875 C 1.953125 -1.785156 2.101562 -1.503906 2.34375 -1.328125 C 2.59375 -1.148438 2.894531 -1.0625 3.25 -1.0625 C 3.625 -1.0625 4 -1.175781 4.375 -1.40625 L 4.890625 -0.46875 C 4.628906 -0.28125 4.332031 -0.132812 4 -0.03125 C 3.675781 0.0703125 3.351562 0.125 3.03125 0.125 Z M 1.875 -3.1875 L 3.765625 -3.1875 C 3.765625 -3.488281 3.695312 -3.726562 3.5625 -3.90625 C 3.425781 -4.09375 3.203125 -4.1875 2.890625 -4.1875 C 2.640625 -4.1875 2.421875 -4.101562 2.234375 -3.9375 C 2.046875 -3.78125 1.925781 -3.53125 1.875 -3.1875 Z M 1.875 -3.1875 "/></g></g></g><g fill="#006094" fill-opacity="1"><g transform="translate(189.136176, 127.986424)"><g><path d="M 2.96875 0.125 C 2.601562 0.125 2.265625 0.0625 1.953125 -0.0625 C 1.640625 -0.1875 1.363281 -0.363281 1.125 -0.59375 C 0.894531 -0.820312 0.710938 -1.109375 0.578125 -1.453125 C 0.441406 -1.796875 0.375 -2.1875 0.375 -2.625 C 0.375 -3.0625 0.445312 -3.453125 0.59375 -3.796875 C 0.75 -4.140625 0.953125 -4.425781 1.203125 -4.65625 C 1.453125 -4.882812 1.742188 -5.0625 2.078125 -5.1875 C 2.410156 -5.3125 2.753906 -5.375 3.109375 -5.375 C 3.429688 -5.375 3.71875 -5.320312 3.96875 -5.21875 C 4.21875 -5.113281 4.441406 -4.976562 4.640625 -4.8125 L 3.90625 -3.8125 C 3.664062 -4.007812 3.429688 -4.109375 3.203125 -4.109375 C 2.828125 -4.109375 2.53125 -3.972656 2.3125 -3.703125 C 2.09375 -3.441406 1.984375 -3.082031 1.984375 -2.625 C 1.984375 -2.164062 2.09375 -1.800781 2.3125 -1.53125 C 2.53125 -1.257812 2.8125 -1.125 3.15625 -1.125 C 3.320312 -1.125 3.484375 -1.160156 3.640625 -1.234375 C 3.796875 -1.316406 3.945312 -1.410156 4.09375 -1.515625 L 4.703125 -0.5 C 4.441406 -0.269531 4.160156 -0.109375 3.859375 -0.015625 C 3.554688 0.078125 3.257812 0.125 2.96875 0.125 Z M 2.96875 0.125 "/></g></g></g><g fill="#006094" fill-opacity="1"><g transform="translate(194.073001, 127.986424)"><g><path d="M 0.6875 0 L 0.6875 -7.421875 L 2.25 -7.421875 L 2.25 -5.59375 L 2.171875 -4.65625 C 2.367188 -4.832031 2.597656 -4.992188 2.859375 -5.140625 C 3.117188 -5.296875 3.425781 -5.375 3.78125 -5.375 C 4.351562 -5.375 4.769531 -5.1875 5.03125 -4.8125 C 5.289062 -4.4375 5.421875 -3.921875 5.421875 -3.265625 L 5.421875 0 L 3.859375 0 L 3.859375 -3.0625 C 3.859375 -3.4375 3.804688 -3.691406 3.703125 -3.828125 C 3.597656 -3.972656 3.4375 -4.046875 3.21875 -4.046875 C 3.019531 -4.046875 2.847656 -4 2.703125 -3.90625 C 2.566406 -3.820312 2.414062 -3.703125 2.25 -3.546875 L 2.25 0 Z M 0.6875 0 "/></g></g></g><g fill="#006094" fill-opacity="1"><g transform="translate(200.109254, 127.986424)"><g><path d="M 2.015625 0.125 C 1.773438 0.125 1.554688 0.0820312 1.359375 0 C 1.160156 -0.0703125 0.992188 -0.179688 0.859375 -0.328125 C 0.734375 -0.472656 0.628906 -0.640625 0.546875 -0.828125 C 0.472656 -1.023438 0.4375 -1.234375 0.4375 -1.453125 C 0.4375 -2.003906 0.671875 -2.4375 1.140625 -2.75 C 1.609375 -3.0625 2.359375 -3.269531 3.390625 -3.375 C 3.378906 -3.601562 3.3125 -3.785156 3.1875 -3.921875 C 3.0625 -4.066406 2.859375 -4.140625 2.578125 -4.140625 C 2.347656 -4.140625 2.117188 -4.09375 1.890625 -4 C 1.671875 -3.914062 1.4375 -3.800781 1.1875 -3.65625 L 0.625 -4.6875 C 0.957031 -4.894531 1.3125 -5.0625 1.6875 -5.1875 C 2.0625 -5.3125 2.453125 -5.375 2.859375 -5.375 C 3.535156 -5.375 4.050781 -5.179688 4.40625 -4.796875 C 4.769531 -4.410156 4.953125 -3.8125 4.953125 -3 L 4.953125 0 L 3.6875 0 L 3.578125 -0.546875 L 3.53125 -0.546875 C 3.300781 -0.347656 3.0625 -0.1875 2.8125 -0.0625 C 2.570312 0.0625 2.304688 0.125 2.015625 0.125 Z M 2.53125 -1.078125 C 2.707031 -1.078125 2.859375 -1.113281 2.984375 -1.1875 C 3.117188 -1.269531 3.253906 -1.378906 3.390625 -1.515625 L 3.390625 -2.4375 C 2.847656 -2.363281 2.46875 -2.253906 2.25 -2.109375 C 2.039062 -1.960938 1.9375 -1.785156 1.9375 -1.578125 C 1.9375 -1.410156 1.988281 -1.285156 2.09375 -1.203125 C 2.207031 -1.117188 2.351562 -1.078125 2.53125 -1.078125 Z M 2.53125 -1.078125 "/></g></g></g><g fill="#006094" fill-opacity="1"><g transform="translate(205.680371, 127.986424)"><g><path d="M 2.703125 0.125 C 2.378906 0.125 2.101562 0.078125 1.875 -0.015625 C 1.644531 -0.117188 1.457031 -0.257812 1.3125 -0.4375 C 1.164062 -0.613281 1.0625 -0.828125 1 -1.078125 C 0.9375 -1.328125 0.90625 -1.601562 0.90625 -1.90625 L 0.90625 -4.03125 L 0.1875 -4.03125 L 0.1875 -5.1875 L 0.984375 -5.25 L 1.15625 -6.640625 L 2.453125 -6.640625 L 2.453125 -5.25 L 3.71875 -5.25 L 3.71875 -4.03125 L 2.453125 -4.03125 L 2.453125 -1.921875 C 2.453125 -1.628906 2.515625 -1.414062 2.640625 -1.28125 C 2.765625 -1.15625 2.925781 -1.09375 3.125 -1.09375 C 3.21875 -1.09375 3.304688 -1.101562 3.390625 -1.125 C 3.472656 -1.144531 3.550781 -1.171875 3.625 -1.203125 L 3.875 -0.0625 C 3.726562 -0.0195312 3.5625 0.0195312 3.375 0.0625 C 3.1875 0.101562 2.960938 0.125 2.703125 0.125 Z M 2.703125 0.125 "/></g></g></g><g fill="#006094" fill-opacity="1"><g transform="translate(209.729211, 127.986424)"><g><path d="M 2.9375 0.125 C 2.601562 0.125 2.28125 0.0625 1.96875 -0.0625 C 1.664062 -0.1875 1.394531 -0.363281 1.15625 -0.59375 C 0.914062 -0.820312 0.722656 -1.109375 0.578125 -1.453125 C 0.441406 -1.796875 0.375 -2.1875 0.375 -2.625 C 0.375 -3.0625 0.441406 -3.453125 0.578125 -3.796875 C 0.722656 -4.140625 0.914062 -4.425781 1.15625 -4.65625 C 1.394531 -4.882812 1.664062 -5.0625 1.96875 -5.1875 C 2.28125 -5.3125 2.601562 -5.375 2.9375 -5.375 C 3.269531 -5.375 3.585938 -5.3125 3.890625 -5.1875 C 4.203125 -5.0625 4.472656 -4.882812 4.703125 -4.65625 C 4.941406 -4.425781 5.128906 -4.140625 5.265625 -3.796875 C 5.410156 -3.453125 5.484375 -3.0625 5.484375 -2.625 C 5.484375 -2.1875 5.410156 -1.796875 5.265625 -1.453125 C 5.128906 -1.109375 4.941406 -0.820312 4.703125 -0.59375 C 4.472656 -0.363281 4.203125 -0.1875 3.890625 -0.0625 C 3.585938 0.0625 3.269531 0.125 2.9375 0.125 Z M 2.9375 -1.125 C 3.257812 -1.125 3.5 -1.257812 3.65625 -1.53125 C 3.820312 -1.800781 3.90625 -2.164062 3.90625 -2.625 C 3.90625 -3.082031 3.820312 -3.441406 3.65625 -3.703125 C 3.5 -3.972656 3.257812 -4.109375 2.9375 -4.109375 C 2.613281 -4.109375 2.375 -3.972656 2.21875 -3.703125 C 2.0625 -3.441406 1.984375 -3.082031 1.984375 -2.625 C 1.984375 -2.164062 2.0625 -1.800781 2.21875 -1.53125 C 2.375 -1.257812 2.613281 -1.125 2.9375 -1.125 Z M 2.9375 -1.125 "/></g></g></g><g fill="#006094" fill-opacity="1"><g transform="translate(215.596323, 127.986424)"><g><path d="M 0.6875 0 L 0.6875 -5.25 L 1.953125 -5.25 L 2.0625 -4.578125 L 2.109375 -4.578125 C 2.328125 -4.785156 2.570312 -4.96875 2.84375 -5.125 C 3.113281 -5.289062 3.425781 -5.375 3.78125 -5.375 C 4.351562 -5.375 4.769531 -5.1875 5.03125 -4.8125 C 5.289062 -4.4375 5.421875 -3.921875 5.421875 -3.265625 L 5.421875 0 L 3.859375 0 L 3.859375 -3.0625 C 3.859375 -3.4375 3.804688 -3.691406 3.703125 -3.828125 C 3.597656 -3.972656 3.4375 -4.046875 3.21875 -4.046875 C 3.019531 -4.046875 2.847656 -4 2.703125 -3.90625 C 2.566406 -3.820312 2.414062 -3.703125 2.25 -3.546875 L 2.25 0 Z M 0.6875 0 "/></g></g></g><g fill="#006094" fill-opacity="1"><g transform="translate(221.643142, 127.986424)"><g><path d="M 3.03125 0.125 C 2.65625 0.125 2.304688 0.0625 1.984375 -0.0625 C 1.660156 -0.1875 1.378906 -0.363281 1.140625 -0.59375 C 0.898438 -0.832031 0.710938 -1.117188 0.578125 -1.453125 C 0.441406 -1.796875 0.375 -2.1875 0.375 -2.625 C 0.375 -3.050781 0.441406 -3.429688 0.578125 -3.765625 C 0.722656 -4.109375 0.910156 -4.398438 1.140625 -4.640625 C 1.367188 -4.878906 1.628906 -5.0625 1.921875 -5.1875 C 2.222656 -5.3125 2.535156 -5.375 2.859375 -5.375 C 3.234375 -5.375 3.554688 -5.3125 3.828125 -5.1875 C 4.109375 -5.0625 4.34375 -4.882812 4.53125 -4.65625 C 4.71875 -4.425781 4.859375 -4.15625 4.953125 -3.84375 C 5.046875 -3.539062 5.09375 -3.210938 5.09375 -2.859375 C 5.09375 -2.710938 5.082031 -2.578125 5.0625 -2.453125 C 5.050781 -2.328125 5.039062 -2.234375 5.03125 -2.171875 L 1.890625 -2.171875 C 1.953125 -1.785156 2.101562 -1.503906 2.34375 -1.328125 C 2.59375 -1.148438 2.894531 -1.0625 3.25 -1.0625 C 3.625 -1.0625 4 -1.175781 4.375 -1.40625 L 4.890625 -0.46875 C 4.628906 -0.28125 4.332031 -0.132812 4 -0.03125 C 3.675781 0.0703125 3.351562 0.125 3.03125 0.125 Z M 1.875 -3.1875 L 3.765625 -3.1875 C 3.765625 -3.488281 3.695312 -3.726562 3.5625 -3.90625 C 3.425781 -4.09375 3.203125 -4.1875 2.890625 -4.1875 C 2.640625 -4.1875 2.421875 -4.101562 2.234375 -3.9375 C 2.046875 -3.78125 1.925781 -3.53125 1.875 -3.1875 Z M 1.875 -3.1875 "/></g></g></g><g fill="#006094" fill-opacity="1"><g transform="translate(227.119116, 127.986424)"><g><path d="M 2.5625 0.125 C 2.238281 0.125 1.941406 0.0625 1.671875 -0.0625 C 1.410156 -0.1875 1.1875 -0.367188 1 -0.609375 C 0.8125 -0.847656 0.664062 -1.132812 0.5625 -1.46875 C 0.457031 -1.8125 0.40625 -2.195312 0.40625 -2.625 C 0.40625 -3.050781 0.46875 -3.429688 0.59375 -3.765625 C 0.71875 -4.109375 0.878906 -4.398438 1.078125 -4.640625 C 1.285156 -4.878906 1.519531 -5.0625 1.78125 -5.1875 C 2.039062 -5.3125 2.3125 -5.375 2.59375 -5.375 C 2.882812 -5.375 3.125 -5.320312 3.3125 -5.21875 C 3.507812 -5.125 3.695312 -4.992188 3.875 -4.828125 L 3.8125 -5.625 L 3.8125 -7.421875 L 5.375 -7.421875 L 5.375 0 L 4.109375 0 L 4 -0.515625 L 3.953125 -0.515625 C 3.773438 -0.335938 3.5625 -0.1875 3.3125 -0.0625 C 3.0625 0.0625 2.8125 0.125 2.5625 0.125 Z M 2.96875 -1.140625 C 3.132812 -1.140625 3.285156 -1.175781 3.421875 -1.25 C 3.554688 -1.320312 3.6875 -1.445312 3.8125 -1.625 L 3.8125 -3.765625 C 3.675781 -3.890625 3.53125 -3.976562 3.375 -4.03125 C 3.226562 -4.082031 3.085938 -4.109375 2.953125 -4.109375 C 2.703125 -4.109375 2.484375 -3.988281 2.296875 -3.75 C 2.109375 -3.507812 2.015625 -3.140625 2.015625 -2.640625 C 2.015625 -2.117188 2.09375 -1.738281 2.25 -1.5 C 2.414062 -1.257812 2.65625 -1.140625 2.96875 -1.140625 Z M 2.96875 -1.140625 "/></g></g></g><g fill="#006094" fill-opacity="1"><g transform="translate(233.176514, 127.986424)"><g><path d="M 0.6875 0 L 0.6875 -5.25 L 2.25 -5.25 L 2.25 0 Z M 1.453125 -6.015625 C 1.191406 -6.015625 0.976562 -6.085938 0.8125 -6.234375 C 0.644531 -6.390625 0.5625 -6.585938 0.5625 -6.828125 C 0.5625 -7.066406 0.644531 -7.257812 0.8125 -7.40625 C 0.976562 -7.5625 1.191406 -7.640625 1.453125 -7.640625 C 1.722656 -7.640625 1.941406 -7.5625 2.109375 -7.40625 C 2.273438 -7.257812 2.359375 -7.066406 2.359375 -6.828125 C 2.359375 -6.585938 2.273438 -6.390625 2.109375 -6.234375 C 1.941406 -6.085938 1.722656 -6.015625 1.453125 -6.015625 Z M 1.453125 -6.015625 "/></g></g></g><g fill="#006094" fill-opacity="1"><g transform="translate(236.094215, 127.986424)"><g><path d="M 2.234375 0.125 C 1.890625 0.125 1.535156 0.0546875 1.171875 -0.078125 C 0.804688 -0.210938 0.488281 -0.390625 0.21875 -0.609375 L 0.921875 -1.578125 C 1.160156 -1.390625 1.390625 -1.25 1.609375 -1.15625 C 1.828125 -1.070312 2.050781 -1.03125 2.28125 -1.03125 C 2.507812 -1.03125 2.675781 -1.066406 2.78125 -1.140625 C 2.882812 -1.222656 2.9375 -1.332031 2.9375 -1.46875 C 2.9375 -1.550781 2.90625 -1.625 2.84375 -1.6875 C 2.789062 -1.757812 2.710938 -1.820312 2.609375 -1.875 C 2.503906 -1.9375 2.390625 -1.988281 2.265625 -2.03125 C 2.140625 -2.082031 2.007812 -2.132812 1.875 -2.1875 C 1.707031 -2.25 1.539062 -2.320312 1.375 -2.40625 C 1.21875 -2.488281 1.070312 -2.59375 0.9375 -2.71875 C 0.800781 -2.84375 0.691406 -2.988281 0.609375 -3.15625 C 0.523438 -3.320312 0.484375 -3.515625 0.484375 -3.734375 C 0.484375 -3.972656 0.53125 -4.191406 0.625 -4.390625 C 0.71875 -4.597656 0.851562 -4.769531 1.03125 -4.90625 C 1.207031 -5.050781 1.421875 -5.164062 1.671875 -5.25 C 1.921875 -5.332031 2.195312 -5.375 2.5 -5.375 C 2.894531 -5.375 3.242188 -5.304688 3.546875 -5.171875 C 3.859375 -5.035156 4.125 -4.878906 4.34375 -4.703125 L 3.65625 -3.78125 C 3.457031 -3.914062 3.265625 -4.019531 3.078125 -4.09375 C 2.898438 -4.175781 2.71875 -4.21875 2.53125 -4.21875 C 2.144531 -4.21875 1.953125 -4.082031 1.953125 -3.8125 C 1.953125 -3.726562 1.976562 -3.65625 2.03125 -3.59375 C 2.082031 -3.53125 2.15625 -3.472656 2.25 -3.421875 C 2.351562 -3.378906 2.460938 -3.332031 2.578125 -3.28125 C 2.703125 -3.238281 2.832031 -3.191406 2.96875 -3.140625 C 3.132812 -3.078125 3.300781 -3.003906 3.46875 -2.921875 C 3.632812 -2.835938 3.785156 -2.734375 3.921875 -2.609375 C 4.066406 -2.492188 4.179688 -2.347656 4.265625 -2.171875 C 4.347656 -2.003906 4.390625 -1.800781 4.390625 -1.5625 C 4.390625 -1.320312 4.34375 -1.097656 4.25 -0.890625 C 4.15625 -0.691406 4.015625 -0.515625 3.828125 -0.359375 C 3.648438 -0.210938 3.425781 -0.09375 3.15625 0 C 2.894531 0.0820312 2.585938 0.125 2.234375 0.125 Z M 2.234375 0.125 "/></g></g></g><g fill="#006094" fill-opacity="1"><g transform="translate(240.777333, 127.986424)"><g><path d="M 2.703125 0.125 C 2.378906 0.125 2.101562 0.078125 1.875 -0.015625 C 1.644531 -0.117188 1.457031 -0.257812 1.3125 -0.4375 C 1.164062 -0.613281 1.0625 -0.828125 1 -1.078125 C 0.9375 -1.328125 0.90625 -1.601562 0.90625 -1.90625 L 0.90625 -4.03125 L 0.1875 -4.03125 L 0.1875 -5.1875 L 0.984375 -5.25 L 1.15625 -6.640625 L 2.453125 -6.640625 L 2.453125 -5.25 L 3.71875 -5.25 L 3.71875 -4.03125 L 2.453125 -4.03125 L 2.453125 -1.921875 C 2.453125 -1.628906 2.515625 -1.414062 2.640625 -1.28125 C 2.765625 -1.15625 2.925781 -1.09375 3.125 -1.09375 C 3.21875 -1.09375 3.304688 -1.101562 3.390625 -1.125 C 3.472656 -1.144531 3.550781 -1.171875 3.625 -1.203125 L 3.875 -0.0625 C 3.726562 -0.0195312 3.5625 0.0195312 3.375 0.0625 C 3.1875 0.101562 2.960938 0.125 2.703125 0.125 Z M 2.703125 0.125 "/></g></g></g><g fill="#006094" fill-opacity="1"><g transform="translate(244.826173, 127.986424)"><g><path d="M 0.6875 0 L 0.6875 -5.25 L 2.25 -5.25 L 2.25 0 Z M 1.453125 -6.015625 C 1.191406 -6.015625 0.976562 -6.085938 0.8125 -6.234375 C 0.644531 -6.390625 0.5625 -6.585938 0.5625 -6.828125 C 0.5625 -7.066406 0.644531 -7.257812 0.8125 -7.40625 C 0.976562 -7.5625 1.191406 -7.640625 1.453125 -7.640625 C 1.722656 -7.640625 1.941406 -7.5625 2.109375 -7.40625 C 2.273438 -7.257812 2.359375 -7.066406 2.359375 -6.828125 C 2.359375 -6.585938 2.273438 -6.390625 2.109375 -6.234375 C 1.941406 -6.085938 1.722656 -6.015625 1.453125 -6.015625 Z M 1.453125 -6.015625 "/></g></g></g><g fill="#006094" fill-opacity="1"><g transform="translate(247.743874, 127.986424)"><g><path d="M 2.96875 0.125 C 2.601562 0.125 2.265625 0.0625 1.953125 -0.0625 C 1.640625 -0.1875 1.363281 -0.363281 1.125 -0.59375 C 0.894531 -0.820312 0.710938 -1.109375 0.578125 -1.453125 C 0.441406 -1.796875 0.375 -2.1875 0.375 -2.625 C 0.375 -3.0625 0.445312 -3.453125 0.59375 -3.796875 C 0.75 -4.140625 0.953125 -4.425781 1.203125 -4.65625 C 1.453125 -4.882812 1.742188 -5.0625 2.078125 -5.1875 C 2.410156 -5.3125 2.753906 -5.375 3.109375 -5.375 C 3.429688 -5.375 3.71875 -5.320312 3.96875 -5.21875 C 4.21875 -5.113281 4.441406 -4.976562 4.640625 -4.8125 L 3.90625 -3.8125 C 3.664062 -4.007812 3.429688 -4.109375 3.203125 -4.109375 C 2.828125 -4.109375 2.53125 -3.972656 2.3125 -3.703125 C 2.09375 -3.441406 1.984375 -3.082031 1.984375 -2.625 C 1.984375 -2.164062 2.09375 -1.800781 2.3125 -1.53125 C 2.53125 -1.257812 2.8125 -1.125 3.15625 -1.125 C 3.320312 -1.125 3.484375 -1.160156 3.640625 -1.234375 C 3.796875 -1.316406 3.945312 -1.410156 4.09375 -1.515625 L 4.703125 -0.5 C 4.441406 -0.269531 4.160156 -0.109375 3.859375 -0.015625 C 3.554688 0.078125 3.257812 0.125 2.96875 0.125 Z M 2.96875 0.125 "/></g></g></g><g fill="#006094" fill-opacity="1"><g transform="translate(252.680699, 127.986424)"><g><path d="M 2.703125 0.125 C 2.378906 0.125 2.101562 0.078125 1.875 -0.015625 C 1.644531 -0.117188 1.457031 -0.257812 1.3125 -0.4375 C 1.164062 -0.613281 1.0625 -0.828125 1 -1.078125 C 0.9375 -1.328125 0.90625 -1.601562 0.90625 -1.90625 L 0.90625 -4.03125 L 0.1875 -4.03125 L 0.1875 -5.1875 L 0.984375 -5.25 L 1.15625 -6.640625 L 2.453125 -6.640625 L 2.453125 -5.25 L 3.71875 -5.25 L 3.71875 -4.03125 L 2.453125 -4.03125 L 2.453125 -1.921875 C 2.453125 -1.628906 2.515625 -1.414062 2.640625 -1.28125 C 2.765625 -1.15625 2.925781 -1.09375 3.125 -1.09375 C 3.21875 -1.09375 3.304688 -1.101562 3.390625 -1.125 C 3.472656 -1.144531 3.550781 -1.171875 3.625 -1.203125 L 3.875 -0.0625 C 3.726562 -0.0195312 3.5625 0.0195312 3.375 0.0625 C 3.1875 0.101562 2.960938 0.125 2.703125 0.125 Z M 2.703125 0.125 "/></g></g></g></svg>